<?xml version="1.0" standalone="no"?>
<!DOCTYPE svg PUBLIC "-//W3C//DTD SVG 20010904//EN"
 "http://www.w3.org/TR/2001/REC-SVG-20010904/DTD/svg10.dtd">
<svg version="1.0" xmlns="http://www.w3.org/2000/svg"
 width="800.000000pt" height="800.000000pt" viewBox="0 0 800.000000 800.000000"
 preserveAspectRatio="xMidYMid meet">
<metadata>
Created by potrace 1.14, written by Peter Selinger 2001-2017
</metadata>
<g transform="translate(0.000000,800.000000) scale(0.100000,-0.100000)"
fill="#000000" stroke="none">
<path d="M3105 7900 c-3 -6 1 -7 9 -4 18 7 21 14 7 14 -6 0 -13 -4 -16 -10z"/>
<path d="M3109 7873 c-1 -5 0 -16 1 -27 1 -11 -3 -15 -9 -12 -7 4 -8 1 -5 -8
10 -27 21 -17 21 19 0 31 -5 48 -8 28z"/>
<path d="M4675 7810 c-3 -5 -1 -10 4 -10 6 0 11 5 11 10 0 6 -2 10 -4 10 -3 0
-8 -4 -11 -10z"/>
<path d="M3099 7793 c-6 -37 -13 -87 -23 -188 -3 -27 -8 -70 -11 -95 -9 -85
-16 -185 -20 -302 -2 -65 -6 -122 -9 -127 -4 -5 -2 -12 4 -16 7 -4 6 -13 -1
-27 -9 -16 -8 -19 2 -13 8 6 10 4 3 -6 -4 -8 -9 -24 -10 -37 -1 -17 3 -22 15
-17 10 3 9 0 -4 -10 -22 -18 -23 -24 -3 -36 7 -5 8 -9 3 -9 -14 0 -17 -38 -3
-46 6 -4 5 -10 -3 -15 -12 -8 -11 -11 1 -19 12 -8 12 -10 1 -10 -11 0 -11 -3
0 -17 8 -9 9 -14 3 -10 -16 9 -10 -48 7 -69 8 -10 9 -15 3 -11 -7 4 -9 -14 -7
-56 2 -34 4 -82 4 -107 1 -28 7 -49 18 -58 9 -7 11 -11 5 -8 -7 3 -10 -11 -9
-39 1 -51 7 -60 32 -50 12 5 14 9 5 12 -6 3 -9 10 -5 16 4 7 9 20 10 30 3 15
-1 17 -18 12 -19 -6 -20 -5 -8 8 8 8 16 13 19 12 3 -2 6 5 6 15 0 12 -4 16
-11 10 -18 -15 -33 3 -30 34 3 27 25 62 25 40 0 -5 -5 -15 -12 -22 -9 -9 -9
-12 1 -12 10 0 11 -3 2 -14 -7 -8 -8 -17 -3 -19 4 -3 13 3 20 14 8 12 9 19 1
19 -5 0 -7 5 -3 12 12 19 10 68 -3 68 -6 0 -15 4 -18 10 -3 5 0 7 7 5 9 -4 14
2 15 15 1 13 -3 18 -10 14 -7 -3 -5 0 3 8 26 22 11 54 -22 49 -13 -2 -9 6 9
20 11 10 14 10 9 2 -4 -8 -1 -13 9 -13 10 0 13 5 9 12 -5 7 -8 28 -8 48 -1 27
-5 35 -18 34 -10 -1 -15 3 -12 8 3 5 12 7 20 4 8 -3 14 1 14 9 0 8 -6 15 -12
15 -8 0 -9 3 -3 8 8 5 13 197 5 222 -5 18 4 347 15 583 3 64 3 117 0 117 -3 0
-6 -3 -6 -7z m-34 -1162 c3 -5 2 -12 -3 -15 -5 -3 -9 1 -9 9 0 17 3 19 12 6z
m25 -15 c0 -2 -8 -10 -17 -17 -16 -13 -17 -12 -4 4 13 16 21 21 21 13z m5
-173 c-2 -10 -4 -20 -5 -23 -1 -3 -2 -9 0 -15 1 -5 -4 -4 -12 3 -11 11 -10 14
2 22 13 9 13 10 0 10 -13 0 -13 1 0 10 19 13 19 13 15 -7z"/>
<path d="M4678 7743 c1 -27 4 -73 6 -103 5 -86 17 -503 18 -630 0 -67 5 -121
12 -129 8 -11 8 -13 0 -8 -21 12 -23 -21 -3 -46 10 -14 19 -29 19 -34 0 -4 -5
0 -11 10 -5 9 -15 17 -21 17 -7 0 -6 -5 2 -15 8 -10 9 -15 1 -15 -7 0 -8 -8
-2 -22 4 -13 7 -31 5 -41 -1 -10 2 -14 8 -11 7 5 8 2 3 -5 -4 -7 -8 -33 -9
-58 -1 -34 3 -51 17 -64 19 -17 19 -18 -4 -13 -14 3 -20 2 -14 -3 6 -4 10 -17
10 -28 0 -11 -4 -23 -10 -27 -6 -5 -5 -8 2 -8 9 0 10 -7 3 -25 -6 -15 -6 -27
0 -30 5 -3 6 -13 3 -22 -5 -12 -2 -15 9 -10 12 4 15 0 13 -18 -1 -14 2 -22 6
-19 14 8 1 58 -18 71 -10 8 -12 13 -4 13 7 0 10 4 6 9 -3 5 -1 12 4 15 5 4 13
1 17 -5 4 -7 3 -9 -3 -6 -5 3 -10 0 -10 -8 0 -15 16 -22 18 -7 0 4 2 50 4 102
2 52 5 107 8 123 2 16 0 27 -7 27 -8 0 -8 3 0 8 15 10 11 68 -5 64 -7 -1 -10
2 -6 8 3 6 11 8 16 4 12 -7 7 18 -6 29 -6 6 -6 10 3 14 6 2 9 10 5 16 -10 17
-11 47 -1 47 5 0 6 4 3 10 -3 5 -8 49 -10 97 -9 181 -27 435 -40 543 -3 19 -7
58 -10 85 -3 28 -7 59 -9 70 -3 11 -5 32 -5 48 -1 15 -4 27 -9 27 -4 0 -6 -21
-4 -47z m64 -978 c2 3 5 -2 5 -10 0 -10 -4 -12 -12 -5 -7 5 -14 8 -17 5 -2 -3
-5 2 -5 10 0 10 4 12 12 5 7 -5 14 -8 17 -5z m3 -54 c3 -5 2 -12 -3 -15 -5 -3
-9 1 -9 9 0 17 3 19 12 6z m0 -52 c-4 -5 -12 -9 -18 -8 -9 0 -8 2 1 6 6 2 9
10 6 15 -4 7 -2 8 5 4 6 -4 9 -12 6 -17z m-8 -35 c-3 -3 -12 -4 -19 -1 -8 3
-5 6 6 6 11 1 17 -2 13 -5z m2 -92 c7 -13 6 -19 -2 -19 -7 0 -13 9 -13 19 0
10 1 18 3 18 1 0 7 -8 12 -18z"/>
<path d="M6050 7319 c0 -5 5 -7 10 -4 6 3 10 8 10 11 0 2 -4 4 -10 4 -5 0 -10
-5 -10 -11z"/>
<path d="M1759 7283 c0 -5 -2 -18 -5 -30 -2 -13 0 -23 4 -23 4 0 8 14 8 30 1
17 0 30 -2 30 -2 0 -4 -3 -5 -7z"/>
<path d="M6074 7209 c1 -18 8 -35 16 -37 7 -3 10 0 6 7 -4 6 -9 21 -11 32 -7
35 -14 34 -11 -2z"/>
<path d="M1739 7168 c0 -13 -2 -30 -4 -38 -1 -8 -5 -31 -9 -50 -3 -19 -8 -46
-10 -60 -13 -73 -14 -90 -2 -90 7 0 13 16 14 38 2 20 5 48 7 62 2 14 6 50 10
80 4 30 9 58 11 62 2 4 0 9 -6 13 -6 3 -10 -4 -11 -17z"/>
<path d="M6090 7105 c5 -14 7 -25 4 -25 -4 0 -2 -6 3 -12 5 -7 11 -29 12 -48
3 -44 9 -85 11 -85 2 0 4 -9 5 -20 1 -11 5 -41 9 -67 3 -27 9 -69 12 -95 3
-27 11 -51 17 -55 9 -6 8 -8 -1 -8 -7 0 -10 -5 -6 -11 3 -6 8 -29 10 -52 3
-23 10 -45 17 -49 8 -5 9 -8 0 -8 -7 0 -10 -11 -7 -27 3 -16 5 -47 6 -70 1
-24 5 -43 8 -43 4 0 5 -15 3 -32 -3 -25 -2 -30 6 -18 14 20 14 4 0 -22 -10
-18 -9 -20 6 -14 14 5 15 4 7 -7 -14 -17 -11 -59 3 -53 7 2 12 -2 12 -9 0 -7
-5 -11 -12 -9 -20 8 -4 -65 18 -81 11 -8 18 -18 14 -22 -4 -3 -13 2 -21 12
-12 17 -13 16 -12 -13 1 -31 18 -43 31 -22 4 6 11 8 16 4 6 -3 7 6 4 23 -3 15
-8 53 -11 83 -4 30 -11 61 -16 68 -7 8 -6 12 3 12 9 0 10 3 4 8 -5 4 -11 16
-11 27 -4 49 -14 128 -18 143 -3 9 -7 39 -11 67 -3 27 -12 56 -18 64 -7 8 -7
12 -2 9 7 -4 9 6 7 28 -2 19 -7 34 -11 34 -3 0 -7 19 -9 43 -3 56 -8 89 -16
107 -3 8 -7 33 -9 56 -2 23 -7 45 -10 50 -3 5 -8 29 -12 53 -3 24 -10 53 -14
65 -5 11 -6 27 -4 34 3 6 -2 12 -11 12 -12 0 -14 -5 -6 -25z m120 -625 c0 -5
-5 -10 -11 -10 -5 0 -7 5 -4 10 3 6 8 10 11 10 2 0 4 -4 4 -10z m40 -244 c0
-2 -8 -10 -17 -17 -16 -13 -17 -12 -4 4 13 16 21 21 21 13z"/>
<path d="M1696 6904 c-4 -10 -2 -13 6 -8 7 5 8 3 2 -7 -5 -8 -10 -25 -10 -39
-1 -14 -3 -26 -4 -27 -1 -2 -4 -12 -5 -23 -1 -11 -3 -21 -4 -22 -3 -4 -10 -74
-15 -148 -3 -30 -5 -55 -6 -55 -3 0 -7 -28 -14 -114 -3 -41 -8 -77 -11 -79 -3
-3 3 -11 13 -19 14 -11 14 -12 1 -8 -13 5 -16 -2 -18 -37 -1 -41 -4 -74 -14
-195 -3 -39 -1 -53 10 -57 11 -5 13 0 8 17 -5 19 -4 20 5 4 13 -20 5 -38 -14
-31 -9 4 -13 -6 -12 -36 1 -22 -3 -40 -9 -40 -5 0 3 -8 18 -19 25 -16 26 -19
12 -31 -13 -11 -14 -10 -9 4 4 11 2 15 -7 11 -10 -4 -14 -27 -13 -90 0 -47 -3
-85 -7 -85 -14 0 -2 -35 12 -36 8 -1 19 -2 25 -3 6 0 11 -8 11 -16 0 -8 -5
-15 -11 -15 -6 0 -4 -5 4 -10 10 -7 12 -12 4 -17 -6 -5 -10 -16 -9 -25 2 -11
-2 -15 -12 -11 -8 3 -11 9 -6 12 4 3 9 24 10 46 2 25 -1 35 -6 27 -4 -8 -11
-13 -15 -13 -17 2 -19 0 -8 -11 16 -16 15 -31 0 -22 -10 6 -10 4 0 -8 10 -13
10 -17 0 -21 -10 -4 -10 -6 1 -6 11 -1 11 -4 1 -16 -12 -15 -4 -20 23 -16 7 1
11 -15 8 -31 0 -5 4 -8 10 -8 5 0 7 -5 3 -11 -4 -8 -9 -7 -15 2 -7 11 -9 11
-9 -1 0 -12 -2 -12 -9 -1 -6 9 -11 10 -15 2 -4 -6 -3 -11 3 -11 10 0 10 -18
-2 -36 -3 -6 -3 -14 1 -18 4 -4 7 -23 7 -42 1 -19 5 -33 10 -32 6 2 9 13 9 25
-1 15 3 20 13 16 12 -5 12 -7 1 -14 -11 -8 -11 -10 1 -18 11 -7 11 -9 0 -13
-8 -3 -10 -9 -6 -14 17 -18 22 19 21 140 0 76 3 123 9 119 6 -4 -8 32 -17 43
-1 0 5 8 12 17 8 10 9 17 3 21 -6 4 -8 20 -4 36 4 21 2 30 -7 30 -10 0 -10 3
-1 14 10 11 8 17 -6 26 -15 9 -14 10 7 4 22 -6 23 -5 11 10 -7 9 -10 16 -7 16
4 0 2 9 -3 19 -8 14 -7 22 5 32 11 9 12 14 3 19 -8 6 -8 13 0 28 9 17 7 24
-11 38 -15 10 -17 14 -6 11 10 -4 20 -2 23 3 4 6 1 10 -5 10 -6 0 -8 5 -3 13
11 18 12 37 2 37 -5 0 -9 5 -9 11 0 5 3 8 8 6 4 -3 8 6 8 19 1 14 -2 21 -9 17
-6 -4 -7 -1 -2 8 14 21 15 89 1 89 -6 0 -5 4 3 9 10 7 14 35 15 105 1 52 5 98
9 102 4 4 -1 13 -11 21 -11 8 -12 12 -3 11 7 -2 15 7 17 20 3 16 0 21 -8 16
-10 -6 -11 -4 0 7 6 7 12 17 12 22 0 4 -6 5 -12 1 -9 -5 -8 -2 1 9 8 10 15 47
17 90 1 39 3 72 4 72 2 0 4 22 13 107 2 21 6 40 9 43 8 8 -2 45 -12 45 -4 0
-11 -7 -14 -16z m-53 -744 c-3 -12 -8 -19 -11 -16 -5 6 5 36 12 36 2 0 2 -9
-1 -20z m7 -175 c-7 -9 -15 -13 -19 -10 -3 3 1 10 9 15 21 14 24 12 10 -5z
m-24 -91 c-4 -12 -2 -15 9 -10 21 8 19 -1 -4 -14 -16 -8 -19 -7 -16 8 2 9 4
20 4 25 1 4 4 7 7 7 3 0 3 -7 0 -16z m-5 -87 c-10 -9 -11 -8 -5 6 3 10 9 15
12 12 3 -3 0 -11 -7 -18z m20 -14 c-11 -5 -11 -7 0 -14 12 -7 12 -9 0 -9 -11
0 -9 -6 5 -22 19 -23 19 -23 -2 -6 -16 14 -23 15 -34 5 -8 -6 -6 -2 4 11 15
17 16 22 5 22 -11 0 -11 2 1 10 8 5 20 9 25 9 6 0 4 -3 -4 -6z m6 -187 c2 -19
1 -19 -8 -3 -6 9 -14 15 -20 12 -5 -4 -9 -2 -9 4 0 20 36 7 37 -13z m0 -78 c1
-10 -3 -18 -9 -18 -6 0 -6 -6 2 -15 7 -8 11 -15 9 -16 -31 -6 -38 -6 -34 1 3
5 1 11 -5 15 -6 4 -7 12 -3 18 4 7 8 15 9 20 3 13 4 14 17 14 7 0 14 -9 14
-19z"/>
<path d="M1622 5535 c4 -4 3 -14 -2 -20 -7 -9 -5 -17 7 -26 16 -12 17 -12 6 2
-9 11 -9 19 -2 26 8 8 7 13 -3 18 -7 5 -10 5 -6 0z"/>
<path d="M3736 6673 c-3 -10 -3 -61 -1 -113 11 -230 5 -865 -10 -1075 -2 -33
-7 -112 -11 -175 -3 -63 -8 -126 -9 -140 -2 -14 -4 -36 -4 -48 -1 -23 -1 -23
-42 9 -58 45 -104 76 -152 100 -23 12 -45 27 -49 33 -4 6 -8 8 -8 4 0 -4 -22
1 -49 12 -84 33 -192 57 -268 59 -19 1 -31 18 -39 56 -1 6 -11 57 -22 115 -48
243 -57 337 -57 575 0 156 7 254 21 330 2 11 6 34 9 50 4 20 3 25 -3 15 -11
-17 -68 -247 -76 -300 -14 -102 -19 -137 -23 -155 -3 -11 -6 -105 -8 -210 -3
-178 7 -317 33 -440 8 -37 7 -41 -12 -42 -117 -4 -349 -95 -448 -173 -20 -17
-40 -30 -45 -30 -7 -1 -65 -61 -142 -150 -29 -33 -137 -219 -135 -230 1 -3 -7
-22 -17 -42 -11 -21 -17 -38 -13 -38 4 0 2 -6 -4 -13 -6 -7 -13 -27 -17 -44
-3 -18 -10 -45 -17 -60 -6 -15 -12 -32 -13 -38 -1 -5 -3 -12 -4 -15 -2 -3 -4
-14 -6 -25 -2 -11 -7 -36 -11 -55 -4 -19 -8 -48 -10 -65 -2 -16 -6 -46 -8 -66
-13 -105 -16 -137 -16 -227 0 -99 5 -186 16 -244 3 -18 7 -44 9 -58 10 -74 60
-244 95 -325 10 -22 21 -50 24 -63 l7 -22 -35 24 c-42 28 -169 83 -212 90 -16
3 -40 8 -54 12 -41 9 -71 12 -156 13 l-80 1 -27 113 c-38 156 -42 180 -54 307
-14 146 -5 381 17 490 17 85 9 85 -16 0 -50 -178 -69 -324 -69 -545 0 -167 7
-274 24 -347 10 -41 4 -50 -39 -63 -14 -4 -43 -17 -65 -28 -22 -12 -43 -20
-47 -19 -5 1 -8 -2 -8 -6 0 -4 -14 -16 -32 -27 -63 -37 -130 -104 -205 -203
-24 -31 -43 -63 -43 -69 0 -7 -4 -13 -8 -13 -4 0 -8 -10 -9 -22 -1 -11 -6 -24
-11 -27 -17 -10 -53 -143 -59 -216 -17 -190 9 -325 95 -505 15 -30 29 -57 32
-60 3 -3 17 -23 32 -46 30 -46 95 -120 152 -173 76 -70 89 -81 95 -81 3 0 20
-12 36 -26 27 -23 79 -61 124 -89 9 -5 18 -12 21 -15 3 -3 23 -18 45 -35 22
-16 43 -34 47 -39 5 -7 8 -7 8 -1 0 6 3 6 8 0 4 -6 36 -33 72 -60 36 -28 72
-57 81 -65 9 -8 56 -51 104 -95 75 -68 207 -207 280 -296 48 -57 140 -198 220
-336 94 -162 98 -169 136 -228 14 -22 29 -47 32 -55 4 -8 25 -40 47 -70 23
-30 48 -66 58 -80 29 -43 203 -236 227 -252 6 -3 20 -15 31 -25 51 -43 98 -78
100 -73 1 3 10 -2 20 -11 27 -24 112 -69 129 -69 8 0 15 -4 15 -8 0 -13 10
-13 190 -18 95 -2 184 1 210 7 25 6 52 12 60 14 8 2 15 4 15 5 0 1 7 3 15 5 8
2 30 8 48 14 17 5 32 8 32 5 0 -3 8 0 18 5 11 6 32 13 48 16 16 3 43 9 59 13
60 13 242 7 335 -12 112 -23 289 -33 374 -21 57 8 147 32 192 52 21 9 42 16
47 15 4 -1 7 2 7 8 0 5 6 10 13 10 18 0 171 103 238 160 50 43 99 92 153 155
15 17 35 39 46 50 11 12 20 24 20 28 0 6 16 28 45 61 6 6 23 30 38 54 16 24
32 42 37 40 9 -3 170 -152 277 -255 55 -54 67 -61 84 -53 13 7 18 18 14 33 -2
12 -7 49 -10 82 -6 59 -8 71 -21 170 -3 28 -8 61 -9 75 -5 37 -15 104 -20 131
-3 13 -7 42 -10 64 -2 22 -10 75 -17 118 l-12 78 60 60 c32 33 97 93 144 132
47 40 87 75 88 80 2 4 8 7 14 7 6 0 16 6 22 14 6 8 74 64 151 126 257 205 416
352 506 467 16 21 35 45 42 53 7 8 18 28 26 42 8 15 24 38 35 50 12 12 19 24
18 26 -2 1 10 31 26 65 29 60 69 189 79 252 8 46 7 274 0 327 -4 25 -11 57
-16 70 -5 13 -9 28 -10 33 -15 91 -110 267 -195 358 -19 21 -36 42 -38 46 -6
14 -132 108 -184 136 -29 16 -50 34 -48 39 14 36 31 244 32 371 0 166 -14 296
-52 460 -26 118 -52 194 -40 120 47 -291 34 -582 -38 -860 -15 -56 -16 -56
-123 -40 -86 13 -220 9 -300 -9 -67 -15 -124 -31 -155 -45 -19 -8 -37 -15 -40
-16 -20 -4 -106 -50 -112 -59 -16 -23 -8 15 21 101 25 77 35 115 56 223 15 77
20 141 19 285 -1 176 -8 232 -49 395 -5 19 -30 86 -46 125 -7 17 -13 32 -14
35 -7 25 -66 135 -92 172 -18 26 -33 50 -33 53 0 16 -180 205 -196 205 -6 0
-19 9 -29 20 -10 11 -24 20 -31 20 -7 0 -14 3 -16 8 -6 13 -142 74 -208 93
-54 15 -55 15 -104 23 -53 9 -58 13 -51 52 3 19 7 49 10 67 3 17 8 48 11 67
13 73 11 416 -2 515 -15 119 -22 161 -29 195 -3 14 -8 36 -11 50 -11 55 -46
180 -51 180 -3 0 -2 -19 1 -42 18 -109 21 -166 21 -348 0 -173 -5 -266 -20
-350 -2 -14 -6 -43 -10 -65 -13 -92 -57 -291 -65 -299 -5 -5 -26 -10 -47 -11
-63 -4 -136 -17 -166 -30 -10 -4 -23 -3 -28 2 -13 13 -119 244 -119 259 0 6
-7 17 -15 24 -8 6 -14 15 -13 18 1 4 -3 17 -10 28 -6 12 -8 24 -5 28 3 3 1 6
-5 6 -7 0 -12 4 -12 9 0 9 -31 76 -152 331 -28 58 -113 231 -191 385 -77 154
-156 313 -176 352 -36 73 -64 93 -75 56z m59 -133 c-3 -5 1 -14 8 -22 16 -17
112 -210 109 -220 -1 -5 2 -8 7 -8 5 0 13 -9 16 -21 4 -11 51 -111 105 -222
53 -111 110 -229 125 -262 15 -33 40 -87 55 -120 15 -33 43 -94 62 -135 20
-41 52 -113 72 -160 46 -104 75 -169 88 -193 12 -25 -2 -40 -52 -57 -23 -7
-43 -17 -46 -21 -3 -5 -20 -16 -39 -25 -19 -9 -35 -20 -35 -25 0 -5 -4 -9 -10
-9 -14 0 -44 -25 -127 -106 -40 -40 -73 -76 -73 -82 0 -6 -4 -12 -8 -14 -10
-4 -66 -87 -75 -110 -7 -20 -27 -24 -27 -7 0 20 -80 173 -111 211 -16 20 -29
40 -29 45 -1 4 -19 26 -40 48 -44 44 -43 38 -25 205 3 25 8 88 11 140 3 52 7
115 9 140 9 115 19 531 19 777 -1 152 3 270 8 267 4 -3 6 -9 3 -14z m-580
-1274 c65 -11 155 -40 225 -73 58 -27 143 -81 148 -95 2 -4 8 -8 14 -8 5 0 28
-18 50 -40 l41 -39 -7 -63 c-4 -35 -9 -76 -11 -93 -2 -16 -6 -54 -10 -84 -3
-29 -10 -85 -16 -125 -5 -39 -12 -90 -14 -113 -2 -23 -9 -71 -15 -105 -6 -35
-12 -74 -14 -88 -1 -14 -6 -45 -11 -69 l-8 -45 -26 30 c-40 46 -124 103 -193
130 -66 27 -192 36 -268 21 -72 -15 -183 -79 -245 -141 -66 -67 -95 -102 -95
-114 0 -5 -9 -18 -20 -30 -12 -12 -19 -22 -16 -22 3 0 -6 -24 -18 -52 -52
-116 -67 -316 -37 -461 25 -116 129 -384 154 -395 4 -2 7 -8 7 -14 0 -12 96
-159 133 -204 24 -29 156 -162 178 -180 8 -5 22 -13 32 -17 9 -3 17 -12 17
-19 0 -15 -51 -151 -59 -158 -3 -3 -6 -11 -7 -17 -1 -7 -2 -18 -2 -23 -2 -11
-122 -10 -122 0 0 3 -12 5 -26 5 -15 -1 -49 2 -78 7 -28 4 -73 10 -101 14 -55
6 -80 10 -110 18 -11 2 -24 5 -28 5 -5 1 -27 19 -49 42 -121 123 -270 210
-403 237 -49 10 -210 4 -210 -8 0 -1 -7 -3 -16 -5 -37 -7 -132 -61 -177 -101
-91 -81 -139 -176 -147 -289 -6 -92 28 -155 144 -271 89 -88 135 -130 163
-149 8 -5 63 -43 121 -83 59 -39 113 -72 122 -72 8 0 15 -4 15 -9 0 -6 67 -40
110 -56 3 -1 13 -5 22 -9 9 -4 22 -8 30 -10 7 -1 19 -5 27 -10 19 -12 141 -15
171 -4 40 14 120 72 120 86 0 6 4 12 8 12 11 0 48 67 67 121 23 63 28 95 29
189 2 89 -21 179 -64 256 -11 19 -18 34 -16 34 13 0 252 -124 258 -134 4 -6 8
-7 8 -3 0 11 40 -12 40 -23 0 -5 -7 -15 -15 -23 -8 -8 -11 -17 -8 -21 3 -3 0
-13 -8 -22 -12 -15 -12 -17 1 -12 8 2 17 13 19 24 2 10 9 27 16 37 13 18 28
12 195 -80 30 -17 87 -47 125 -68 39 -20 71 -38 73 -40 5 -5 -29 -69 -40 -76
-5 -3 -9 -9 -8 -13 1 -4 -14 -33 -33 -64 -41 -66 -140 -163 -252 -247 -88 -66
-147 -122 -190 -180 -16 -22 -32 -42 -35 -45 -11 -9 -59 -119 -66 -147 -33
-144 15 -290 132 -407 36 -36 72 -66 80 -66 8 0 14 -4 14 -9 0 -13 108 -59
175 -74 113 -25 173 -13 345 71 30 15 57 27 60 28 3 0 39 8 80 17 109 24 153
32 235 41 17 2 30 5 30 6 0 3 121 11 190 12 93 1 145 -4 151 -13 2 -5 11 -6
18 -3 8 3 31 1 52 -5 22 -6 55 -13 74 -16 19 -3 55 -11 80 -16 41 -10 88 -16
165 -24 17 -2 32 -4 35 -5 10 -4 116 2 150 7 19 3 42 7 50 8 8 1 22 5 30 8 8
3 33 11 55 18 22 7 57 21 77 31 45 24 60 20 121 -35 26 -23 61 -53 78 -67 80
-64 159 -137 159 -145 0 -8 -64 -100 -72 -103 -4 -2 -8 -10 -8 -17 0 -7 -3
-15 -7 -17 -5 -2 -26 -25 -47 -53 -22 -27 -58 -69 -80 -93 -55 -58 -201 -182
-214 -182 -6 0 -12 -4 -14 -8 -9 -23 -194 -113 -263 -128 -90 -20 -224 -24
-325 -10 -30 4 -68 9 -85 11 -16 3 -41 7 -55 10 -82 18 -227 25 -281 13 -20
-4 -52 -9 -72 -12 -20 -2 -42 -8 -48 -12 -7 -4 -22 -8 -33 -10 -12 -2 -61 -14
-110 -28 -49 -14 -93 -23 -97 -20 -4 2 -10 1 -13 -4 -9 -15 -187 -21 -261 -9
-119 20 -248 100 -390 241 -92 91 -185 198 -185 211 0 4 -10 16 -22 26 -11 11
-18 19 -15 19 4 0 -9 21 -28 48 -47 63 -48 64 -66 98 -26 50 -44 79 -50 84 -3
3 -16 25 -30 50 -13 25 -27 47 -31 48 -5 2 -8 7 -8 12 0 24 -178 305 -231 365
-9 11 -35 40 -56 65 -40 47 -127 141 -179 194 -83 83 -247 218 -399 327 -94
67 -160 115 -209 152 -37 28 -185 173 -211 208 -55 71 -120 207 -146 305 -33
120 -33 294 -1 399 48 160 146 301 267 383 22 15 42 29 45 32 7 7 70 38 105
51 103 38 242 52 360 36 119 -17 273 -93 378 -187 33 -29 56 -32 70 -9 8 13 2
33 -25 85 -19 38 -47 101 -63 139 -15 39 -31 79 -36 90 -11 25 -49 165 -47
174 1 3 -2 14 -7 24 -4 9 -5 26 -2 37 3 10 1 20 -3 22 -13 5 -23 123 -22 268
1 149 8 237 27 325 4 17 9 40 11 53 2 12 6 32 8 45 20 107 100 295 169 399 67
101 178 218 207 218 6 0 10 4 10 10 0 11 214 117 250 124 14 2 36 9 50 14 14
5 48 13 75 16 27 4 51 8 52 10 4 4 212 -3 238 -8z m1695 -130 c14 -3 39 -7 55
-10 38 -6 115 -32 181 -61 146 -64 267 -175 372 -340 23 -37 103 -203 107
-224 2 -11 8 -28 13 -38 10 -18 37 -123 46 -178 26 -148 26 -370 1 -495 -3
-14 -8 -38 -11 -55 -3 -16 -12 -55 -20 -85 -8 -30 -17 -62 -19 -70 -11 -40
-25 -79 -44 -123 -11 -26 -21 -51 -22 -55 -1 -4 -5 -17 -10 -30 -6 -16 -5 -30
4 -42 13 -19 14 -19 48 0 19 11 49 28 67 37 17 9 32 20 32 25 0 4 9 8 20 8 11
0 20 3 20 8 0 4 26 17 58 28 31 12 66 25 77 29 111 43 310 55 429 28 99 -23
106 -25 106 -32 0 -4 8 -7 19 -8 35 -3 164 -88 226 -149 35 -34 81 -86 104
-116 39 -53 118 -208 126 -249 2 -11 7 -29 10 -39 36 -112 38 -359 4 -448 -6
-15 -10 -29 -10 -32 0 -12 -13 -58 -28 -90 -8 -19 -15 -37 -16 -40 -3 -12 -58
-116 -65 -120 -4 -3 -13 -16 -20 -30 -34 -65 -207 -249 -349 -370 -35 -30 -69
-60 -75 -65 -6 -6 -29 -24 -51 -40 -21 -17 -47 -37 -56 -45 -17 -16 -31 -28
-99 -80 -24 -19 -56 -45 -70 -58 -14 -12 -48 -39 -77 -60 -29 -20 -52 -43 -53
-49 0 -7 -4 -13 -9 -13 -9 0 -79 -60 -137 -119 -19 -18 -34 -29 -35 -25 0 5
-2 18 -5 29 -2 11 -6 34 -8 50 -5 31 -31 168 -42 220 -3 17 -9 48 -14 70 -4
22 -10 47 -13 55 -14 34 -26 143 -17 147 54 22 194 98 258 139 103 67 207 160
257 230 11 15 25 32 30 38 35 40 100 177 123 262 55 201 0 368 -158 478 -112
77 -253 106 -380 77 -74 -17 -244 -101 -305 -151 -27 -23 -58 -48 -69 -56 -23
-19 -28 -13 -48 56 -40 135 -81 269 -99 317 -10 29 -21 63 -23 75 -3 13 -12
41 -20 63 -28 78 -44 143 -38 150 4 3 8 18 9 33 1 15 5 54 9 87 9 87 4 206
-11 290 -35 186 -146 354 -287 435 -50 28 -55 35 -87 112 -18 46 -42 103 -53
128 -11 25 -21 50 -22 55 -1 6 -12 32 -24 59 -12 27 -22 50 -22 53 0 2 -9 23
-19 46 -10 23 -35 80 -54 127 -19 47 -46 108 -58 135 -13 28 -23 53 -24 57 0
3 -3 10 -8 14 -10 10 54 31 122 39 31 4 57 8 58 9 4 4 166 -3 193 -8z m-387
-151 c21 -49 58 -139 83 -200 25 -60 51 -123 59 -140 7 -16 32 -79 56 -140 23
-60 46 -115 51 -122 7 -8 -7 -11 -54 -10 -82 1 -129 -8 -181 -34 -23 -12 -42
-20 -42 -18 0 2 -13 -8 -28 -21 -16 -14 -29 -23 -30 -20 -2 5 -28 -21 -97 -96
-54 -59 -124 -161 -163 -239 -49 -97 -77 -161 -77 -177 0 -8 -4 -18 -9 -23 -5
-6 -12 -23 -15 -40 -3 -16 -13 -59 -22 -95 -21 -84 -26 -286 -9 -365 42 -196
151 -377 281 -465 124 -84 276 -89 414 -16 159 85 320 293 402 518 l13 37 52
-162 c28 -89 68 -216 89 -282 20 -66 39 -125 41 -131 2 -6 -7 -22 -19 -35 -13
-14 -40 -47 -60 -75 -21 -27 -41 -53 -45 -59 -5 -5 -17 -27 -28 -47 -11 -21
-22 -38 -26 -38 -3 0 -6 -6 -7 -12 -1 -7 -12 -44 -26 -83 -36 -103 -32 -215
12 -305 68 -141 230 -255 403 -285 19 -3 37 -9 41 -13 6 -7 58 -235 64 -285 2
-16 6 -32 9 -37 3 -4 7 -25 11 -45 3 -21 8 -46 10 -56 2 -11 6 -28 8 -38 7
-30 18 -110 16 -113 -1 -2 3 -15 9 -29 7 -21 6 -31 -7 -45 -10 -11 -33 -44
-52 -74 -19 -30 -37 -57 -40 -60 -11 -11 -70 -112 -70 -121 0 -5 -5 -9 -12 -9
-6 0 -8 -3 -5 -7 4 -3 -4 -21 -18 -39 -14 -18 -25 -38 -25 -44 0 -14 -46 12
-70 39 -8 9 -33 30 -55 46 -21 17 -46 37 -55 45 -9 8 -43 37 -76 64 l-60 48
35 38 c57 60 61 67 82 128 20 58 26 120 16 182 -7 45 -43 136 -68 171 -10 15
-19 30 -19 33 0 17 -126 126 -146 126 -6 0 -17 7 -24 15 -6 8 -15 14 -18 13
-7 -1 -121 50 -209 94 -24 12 -43 25 -43 30 0 4 -5 8 -11 8 -14 0 -98 86 -110
113 -43 98 -131 216 -196 263 -51 38 -162 90 -208 99 -5 1 -12 3 -15 4 -3 2
-14 4 -25 6 -11 2 -31 6 -45 10 -41 11 -330 13 -369 3 -20 -6 -45 -12 -56 -14
-65 -10 -140 -47 -200 -97 -27 -23 -51 -44 -53 -48 -15 -33 -31 -43 -53 -32
-13 5 -27 10 -31 9 -4 0 -14 8 -22 19 -9 11 -16 17 -16 13 0 -4 -15 1 -32 11
-18 11 -82 45 -143 76 -126 65 -147 81 -122 91 9 3 15 10 12 14 -3 5 7 34 22
64 l27 56 55 -5 c135 -10 271 -14 271 -7 0 4 -24 7 -52 7 -29 0 -73 2 -98 6
-25 4 -47 3 -48 -3 -3 -5 -9 -5 -16 1 -6 5 -33 11 -59 12 -39 2 -47 6 -41 18
3 9 7 25 10 35 2 11 9 23 15 26 6 4 10 10 9 14 -1 4 3 20 9 36 5 17 11 34 12
38 0 4 5 15 10 24 8 16 13 16 67 -3 63 -22 152 -26 197 -9 17 6 30 11 30 10 0
-1 11 3 25 8 31 12 117 76 148 111 33 37 92 126 92 139 0 6 4 12 8 14 10 4 50
97 68 157 30 104 38 162 37 281 -1 147 -12 223 -50 350 -31 106 -65 186 -118
275 -13 22 -31 53 -40 68 -9 15 -24 36 -34 46 -17 17 -17 24 -6 92 7 41 11 77
8 82 -2 4 1 7 7 7 6 0 9 4 5 9 -3 5 -1 29 4 53 9 39 13 63 25 168 4 33 10 71
21 145 2 17 7 57 10 90 4 33 8 74 10 90 2 17 4 38 4 49 1 14 8 10 31 -20 17
-22 37 -47 45 -56 8 -10 11 -18 7 -18 -4 0 -2 -4 4 -8 15 -9 93 -174 100 -211
8 -38 39 -72 60 -64 8 3 31 38 50 77 54 110 132 205 249 305 22 19 80 55 140
88 65 35 74 29 118 -72z m-1830 -2401 c5 -6 25 -8 125 -16 17 -1 32 -5 32 -8
0 -3 12 -5 28 -5 26 -1 189 -17 205 -21 4 -1 11 -2 16 -3 5 0 3 -13 -4 -28 -7
-16 -23 -49 -34 -75 l-21 -48 -98 48 c-53 26 -98 50 -100 55 -2 4 -9 7 -15 7
-15 0 -121 52 -142 70 -8 7 -15 16 -15 21 0 10 14 12 23 3z m3042 -1545 c17
-87 31 -170 41 -254 8 -61 10 -73 13 -77 1 -2 4 -21 6 -43 2 -22 6 -58 9 -80
3 -22 8 -60 11 -85 l6 -45 -62 60 c-35 33 -68 65 -74 70 -63 54 -165 150 -165
155 0 4 9 16 20 28 12 12 18 22 15 22 -6 0 24 49 42 68 7 7 13 20 13 28 0 8 5
14 10 14 6 0 10 5 10 11 0 6 14 31 30 56 17 24 30 46 30 49 0 8 34 53 38 49 1
-1 5 -13 7 -26z"/>
<path d="M2984 2248 c-21 -31 -32 -58 -26 -58 9 0 44 61 38 67 -2 2 -8 -2 -12
-9z"/>
<path d="M2931 2150 c-5 -17 -10 -33 -10 -37 1 -3 -3 -9 -8 -12 -5 -3 -24 -37
-42 -76 -19 -38 -39 -73 -45 -77 -6 -4 -7 -8 -2 -8 5 0 2 -8 -5 -17 -12 -16
-12 -17 1 -6 9 7 29 40 45 75 17 35 32 65 36 68 3 3 13 23 23 45 10 22 23 48
28 58 5 10 5 17 -1 17 -5 0 -14 -14 -20 -30z"/>
<path d="M2790 1878 c-12 -22 -12 -22 6 -6 10 10 15 20 12 24 -4 3 -12 -5 -18
-18z"/>
<path d="M2765 1842 c3 -3 0 -11 -6 -19 -6 -7 -7 -13 -3 -13 5 0 14 8 21 18 9
15 8 19 -3 19 -8 0 -12 -3 -9 -5z"/>
<path d="M2733 1783 c4 -3 -1 -16 -10 -27 -18 -21 -18 -21 5 -2 24 21 29 36
10 36 -6 0 -8 -3 -5 -7z"/>
<path d="M2695 1720 c-3 -6 1 -7 9 -4 18 7 21 14 7 14 -6 0 -13 -4 -16 -10z"/>
<path d="M2653 1653 c4 -3 1 -13 -6 -22 -11 -14 -10 -14 5 -2 16 12 16 31 1
31 -4 0 -3 -3 0 -7z"/>
<path d="M3545 2520 c6 -10 4 -12 -11 -6 -10 4 -15 4 -11 -1 5 -4 38 -8 75
-10 37 -1 74 -3 81 -5 7 -2 15 3 17 10 1 7 0 8 -2 3 -3 -6 -11 -8 -18 -5 -7 3
-34 6 -62 7 -27 2 -55 7 -63 11 -10 7 -12 5 -6 -4z"/>
<path d="M4040 2520 c-12 -7 -10 -9 7 -7 12 0 19 5 17 9 -6 10 -6 10 -24 -2z"/>
<path d="M3465 2510 c3 -5 8 -10 11 -10 2 0 4 5 4 10 0 6 -5 10 -11 10 -5 0
-7 -4 -4 -10z"/>
<path d="M3495 2510 c3 -5 8 -10 11 -10 2 0 4 5 4 10 0 6 -5 10 -11 10 -5 0
-7 -4 -4 -10z"/>
<path d="M3830 2510 c0 -5 5 -10 11 -10 5 0 7 5 4 10 -3 6 -8 10 -11 10 -2 0
-4 -4 -4 -10z"/>
<path d="M3908 2513 c7 -3 16 -2 19 1 4 3 -2 6 -13 5 -11 0 -14 -3 -6 -6z"/>
<path d="M3775 2500 c3 -5 8 -10 11 -10 2 0 4 5 4 10 0 6 -5 10 -11 10 -5 0
-7 -4 -4 -10z"/>
<path d="M4710 6400 c0 -5 5 -10 10 -10 6 0 10 5 10 10 0 6 -4 10 -10 10 -5 0
-10 -4 -10 -10z"/>
<path d="M3100 6381 c-8 -6 -18 -7 -22 -5 -4 3 -8 0 -8 -6 0 -7 7 -10 15 -6
21 8 19 -11 -2 -23 -10 -6 -12 -11 -5 -11 6 0 12 -5 12 -11 0 -5 -5 -7 -11 -3
-7 4 -7 -2 1 -17 18 -34 24 -38 15 -9 -7 23 -7 24 10 10 18 -14 18 -14 1 13
-10 15 -14 27 -8 27 5 0 12 11 14 25 3 14 5 25 4 25 0 0 -8 -4 -16 -9z"/>
<path d="M4710 6370 c0 -5 5 -10 10 -10 6 0 10 5 10 10 0 6 -4 10 -10 10 -5 0
-10 -4 -10 -10z"/>
<path d="M4725 6354 c-14 -11 -16 -18 -7 -21 6 -3 12 -9 12 -14 0 -6 -4 -8 -8
-5 -5 3 -9 -1 -9 -9 0 -8 6 -16 12 -19 8 -3 11 7 9 30 -1 19 1 32 5 30 4 -3 8
1 8 9 0 8 -1 15 -1 15 -1 0 -10 -8 -21 -16z"/>
<path d="M4807 6349 c4 -13 8 -18 11 -10 2 7 -1 18 -6 23 -8 8 -9 4 -5 -13z"/>
<path d="M4713 6265 c0 -8 4 -12 8 -9 4 2 9 -1 11 -8 3 -7 7 -4 12 7 4 11 4
16 0 12 -4 -4 -12 -2 -19 3 -8 7 -12 5 -12 -5z"/>
<path d="M3102 6230 c-7 -11 -9 -20 -4 -20 4 0 13 9 20 20 7 11 9 20 4 20 -4
0 -13 -9 -20 -20z"/>
<path d="M4714 6222 c0 -10 6 -19 13 -19 8 0 9 6 2 19 -5 10 -11 18 -12 18 -2
0 -3 -8 -3 -18z"/>
<path d="M3110 6200 c-9 -6 -10 -10 -3 -10 6 0 15 5 18 10 8 12 4 12 -15 0z"/>
<path d="M4707 6179 c7 -9 10 -19 6 -22 -3 -4 -1 -7 5 -7 17 0 15 16 -5 31
-16 12 -17 12 -6 -2z"/>
<path d="M6240 6127 c-8 -7 -17 -21 -18 -32 -3 -16 -1 -18 9 -7 7 6 18 12 23
12 6 0 1 -7 -11 -15 -14 -10 -20 -22 -16 -31 5 -13 7 -13 14 -2 7 10 9 10 9 0
0 -7 -7 -15 -16 -19 -13 -5 -13 -7 -2 -14 10 -7 10 -9 0 -9 -9 0 -10 -5 -4
-17 5 -10 7 -24 5 -30 -3 -7 3 -13 12 -13 9 0 13 5 10 10 -3 6 -1 10 4 10 18
0 12 -22 -7 -27 -19 -4 -22 -28 -8 -51 4 -7 2 -12 -5 -12 -8 0 -8 -4 -1 -12 5
-7 8 -22 6 -34 -4 -24 34 -47 55 -34 8 4 1 10 -21 14 -18 4 -28 10 -23 14 14
10 17 32 5 32 -18 0 -10 19 13 30 20 10 20 10 4 -3 -16 -14 -16 -15 5 -30 13
-9 16 -14 7 -11 -10 3 -16 -1 -16 -11 0 -18 9 -19 25 -3 8 8 8 17 1 30 -5 10
-7 23 -3 29 3 6 -2 16 -12 23 -11 9 -14 18 -8 27 14 22 15 47 2 55 -7 5 -8 3
-3 -6 6 -9 4 -11 -5 -5 -10 6 -9 11 4 21 9 6 13 15 8 18 -5 3 -8 23 -8 46 1
30 -2 40 -14 40 -12 0 -12 2 -1 9 7 5 9 11 4 14 -4 3 -15 0 -23 -6z m25 -107
c3 -5 1 -10 -4 -10 -6 0 -11 5 -11 10 0 6 2 10 4 10 3 0 8 -4 11 -10z m-1
-105 c3 -8 1 -15 -4 -15 -6 0 -10 7 -10 15 0 8 2 15 4 15 2 0 6 -7 10 -15z"/>
<path d="M4707 6099 c7 -7 15 -10 18 -7 3 3 -2 9 -12 12 -14 6 -15 5 -6 -5z"/>
<path d="M3115 6091 c-3 -5 -2 -12 3 -15 5 -3 9 1 9 9 0 17 -3 19 -12 6z"/>
<path d="M4710 6039 c0 -5 5 -7 10 -4 6 3 10 8 10 11 0 2 -4 4 -10 4 -5 0 -10
-5 -10 -11z"/>
<path d="M6280 5930 c0 -5 5 -10 11 -10 5 0 7 5 4 10 -3 6 -8 10 -11 10 -2 0
-4 -4 -4 -10z"/>
<path d="M6247 5794 c-3 -3 -2 -18 2 -32 4 -15 7 -44 6 -64 0 -21 3 -38 8 -38
5 0 4 -6 -2 -13 -6 -8 -8 -17 -5 -20 6 -5 8 -21 13 -99 0 -10 5 -18 10 -18 6
0 9 9 8 20 -1 11 -5 20 -9 20 -10 0 -5 54 7 62 6 5 6 8 -1 8 -12 0 -12 69 1
90 5 8 4 11 -3 6 -6 -3 -13 -3 -16 2 -2 4 4 9 15 9 22 2 23 -1 9 -27 -12 -23
6 -38 23 -20 7 7 7 10 1 7 -6 -4 -9 13 -8 49 1 37 -2 54 -10 51 -6 -2 -18 -1
-27 4 -9 5 -19 6 -22 3z m27 -35 c-3 -5 -1 -9 5 -9 5 0 12 5 14 10 3 6 4 5 3
-2 -3 -15 -31 -18 -31 -3 0 6 -4 17 -10 25 -8 13 -7 13 8 1 9 -7 14 -17 11
-22z"/>
<path d="M6286 5647 c7 -26 7 -35 1 -62 -2 -11 -2 -24 2 -30 12 -21 10 -46 -3
-51 -17 -6 -15 -100 1 -97 14 3 25 -25 13 -32 -6 -4 -10 -1 -10 5 0 6 -5 8
-11 4 -8 -5 -8 -8 0 -13 13 -8 10 -63 -4 -73 -6 -5 -4 -8 5 -8 9 0 16 -9 17
-20 1 -11 -1 -19 -5 -16 -4 2 -8 -8 -9 -22 l-1 -27 12 24 c8 15 16 20 20 13 4
-6 -2 -20 -12 -30 -19 -19 -19 -19 3 -19 19 0 23 4 21 23 -2 13 -6 27 -9 31
-12 11 -7 24 6 17 9 -6 9 -5 0 7 -10 12 -10 18 0 28 6 7 8 12 2 11 -22 -5 -36
0 -30 10 4 6 10 8 15 5 5 -3 12 0 16 6 4 7 3 9 -3 6 -7 -4 -10 3 -9 18 0 14 6
25 11 25 6 0 3 5 -5 10 -13 9 -13 11 0 20 8 5 10 10 4 10 -14 0 -14 33 0 42 8
6 8 8 -1 8 -12 0 -12 24 0 36 3 4 3 14 -2 23 -5 9 -7 24 -6 34 2 9 -1 15 -6
11 -5 -3 -9 -1 -9 5 0 5 4 12 8 15 7 4 8 17 3 57 -1 4 -7 9 -15 12 -11 4 -13
0 -10 -16z m27 -139 c-6 -7 -9 -21 -8 -31 2 -9 -1 -15 -6 -11 -11 6 -12 -9 -2
-20 12 -12 11 -33 -1 -33 -17 0 -15 70 3 90 16 20 28 23 14 5z"/>
<path d="M1595 5591 c-3 -5 2 -11 10 -15 8 -3 17 -1 20 3 3 5 -2 11 -10 15 -8
3 -17 1 -20 -3z"/>
<path d="M1610 5380 c12 -23 13 -33 2 -26 -7 4 -8 -28 -2 -44 1 -3 2 -9 1 -13
-1 -5 3 -6 9 -2 5 3 10 2 10 -4 0 -5 3 -17 7 -27 4 -11 3 -15 -5 -10 -16 9
-26 -13 -12 -28 8 -11 8 -15 -2 -19 -7 -3 -2 -4 12 -3 22 3 25 8 26 42 0 21
-3 46 -7 55 -5 9 -3 21 4 28 9 10 8 11 -6 5 -11 -4 -16 -13 -12 -22 4 -12 3
-13 -9 -3 -14 12 -12 41 2 39 20 -2 30 4 28 17 -3 19 -9 25 -35 30 -18 3 -20
1 -11 -15z m31 -5 c5 4 6 -1 2 -10 -5 -13 -7 -14 -14 -3 -5 7 -8 18 -8 23 0 6
3 4 6 -3 2 -6 9 -10 14 -7z m6 -147 c2 -16 -1 -17 -13 -8 -18 15 -18 27 -1 27
7 0 14 -9 14 -19z"/>
<path d="M1617 5184 c-3 -3 3 -15 14 -27 21 -23 25 -47 8 -47 -5 0 -8 4 -4 9
3 5 2 12 -3 15 -17 10 -5 -74 13 -94 20 -22 8 -28 -15 -7 -12 10 -12 9 -2 -4
6 -9 8 -19 4 -24 -4 -4 3 -2 16 4 l23 12 -22 30 c-17 24 -18 33 -9 44 7 8 16
12 21 9 11 -6 0 24 -19 54 -15 24 -4 30 17 10 10 -11 11 -10 6 5 -7 16 -35 23
-48 11z"/>
<path d="M6304 5164 c18 -17 23 -18 23 -1 0 7 -9 14 -19 14 -16 2 -16 0 -4
-13z"/>
<path d="M6298 5133 c6 -2 12 -11 12 -18 0 -8 4 -16 9 -19 12 -8 8 27 -4 36
-5 4 -14 7 -20 7 -5 0 -4 -3 3 -6z"/>
<path d="M6293 5089 c14 -8 15 -14 7 -24 -8 -9 -7 -14 4 -18 11 -4 13 -1 9 10
-5 12 -3 14 8 8 8 -5 5 1 -5 13 -11 12 -24 22 -30 22 -6 0 -3 -5 7 -11z"/>
<path d="M1650 5081 c0 -6 4 -13 10 -16 6 -3 7 1 4 9 -7 18 -14 21 -14 7z"/>
<path d="M6290 5019 c0 -5 5 -7 10 -4 6 3 10 8 10 11 0 2 -4 4 -10 4 -5 0 -10
-5 -10 -11z"/>
<path d="M6310 5000 c0 -5 5 -10 11 -10 5 0 7 5 4 10 -3 6 -8 10 -11 10 -2 0
-4 -4 -4 -10z"/>
<path d="M1640 4990 c-8 -5 -12 -11 -10 -14 3 -2 14 2 24 10 22 15 10 19 -14
4z"/>
<path d="M6294 4977 c1 -8 10 -25 19 -38 l18 -24 -13 25 c-7 14 -12 28 -13 32
0 3 -3 9 -7 13 -3 4 -6 0 -4 -8z"/>
<path d="M1654 4956 c5 -13 2 -17 -8 -13 -8 3 -13 0 -12 -6 6 -26 19 -47 29
-47 6 0 4 8 -5 17 -15 14 -15 18 -3 27 11 8 12 15 4 26 -9 12 -10 12 -5 -4z"/>
<path d="M6296 4903 c-6 -14 -5 -15 5 -6 7 7 10 15 7 18 -3 3 -9 -2 -12 -12z"/>
<path d="M6314 4862 c3 -5 0 -13 -6 -15 -9 -4 -10 -6 -1 -6 17 -1 25 16 12 25
-7 4 -9 3 -5 -4z"/>
<path d="M1650 4838 c0 -4 4 -8 9 -8 6 0 12 4 15 8 3 5 -1 9 -9 9 -8 0 -15 -4
-15 -9z"/>
<path d="M1653 4735 c0 -8 4 -12 9 -9 5 3 6 10 3 15 -9 13 -12 11 -12 -6z"/>
<path d="M6300 4719 c0 -5 5 -7 10 -4 6 3 10 8 10 11 0 2 -4 4 -10 4 -5 0 -10
-5 -10 -11z"/>
<path d="M1655 4700 c3 -5 8 -10 11 -10 2 0 4 5 4 10 0 6 -5 10 -11 10 -5 0
-7 -4 -4 -10z"/>
<path d="M6301 4684 c0 -11 3 -14 6 -6 3 7 2 16 -1 19 -3 4 -6 -2 -5 -13z"/>
<path d="M6421 4524 c0 -11 3 -14 6 -6 3 7 2 16 -1 19 -3 4 -6 -2 -5 -13z"/>
</g>
</svg>
